<svg width="64" height="64" viewBox="0 0 64 64" fill="none" xmlns="http://www.w3.org/2000/svg">
<circle cx="32" cy="32" r="32" fill="#D6401F"/>
<path d="M45 31.355H44.9842C44.9941 31.569 45 31.785 45 32.001C45 39.84 38.7316 46.194 30.9995 46.194C28.1824 46.194 25.5597 45.349 23.3631 43.897V52H17V32.645H17.0158C17.0059 32.432 17 32.217 17 32.001C17 24.162 23.2684 17.808 30.9995 17.808C33.8166 17.808 36.4393 18.652 38.636 20.104V12H45V31.355ZM31.3181 24.259C27.276 24.26 23.9993 27.582 24.0002 31.68C24.0012 35.778 27.2779 39.1 31.3201 39.099C35.3622 39.098 38.6389 35.776 38.6379 31.678C38.6369 27.58 35.3602 24.258 31.3181 24.259Z" fill="white"/>
</svg>
