<svg xmlns="http://www.w3.org/2000/svg" fill="none" aria-hidden="true" viewBox="0 0 24 24"><path fill="currentColor" d="M22.5 19.875h-1.125V8.25A.375.375 0 0 0 21 7.875h-6a.375.375 0 0 0-.375.375v4.125h-5.25V3.75A.375.375 0 0 0 9 3.375H3a.375.375 0 0 0-.375.375v16.125H1.5a.375.375 0 1 0 0 .75h21a.375.375 0 0 0 0-.75m-7.125-11.25h5.25v11.25h-5.25zm-.75 4.5v6.75h-5.25v-6.75zm-11.25-9h5.25v15.75h-5.25zm3 2.625v1.5a.375.375 0 0 1-.75 0v-1.5a.375.375 0 0 1 .75 0m0 4.5v1.5a.375.375 0 0 1-.75 0v-1.5a.375.375 0 0 1 .75 0m0 4.5v1.5a.375.375 0 0 1-.75 0v-1.5a.375.375 0 0 1 .75 0m5.25 1.5v-1.5a.375.375 0 0 1 .75 0v1.5a.375.375 0 0 1-.75 0m6 0v-1.5a.375.375 0 0 1 .75 0v1.5a.375.375 0 0 1-.75 0m0-4.5v-1.5a.375.375 0 0 1 .75 0v1.5a.375.375 0 0 1-.75 0"/></svg>