<svg xmlns="http://www.w3.org/2000/svg" fill="none" aria-hidden="true" viewBox="0 0 24 24"><path fill="currentColor" d="M19.5 3.375h-2.625V2.25a.375.375 0 1 0-.75 0v1.125h-8.25V2.25a.375.375 0 1 0-.75 0v1.125H4.5A1.125 1.125 0 0 0 3.375 4.5v15A1.125 1.125 0 0 0 4.5 20.625h15a1.125 1.125 0 0 0 1.125-1.125v-15A1.125 1.125 0 0 0 19.5 3.375m-15 .75h2.625V5.25a.375.375 0 1 0 .75 0V4.125h8.25V5.25a.375.375 0 1 0 .75 0V4.125H19.5a.375.375 0 0 1 .375.375v3.375H4.125V4.5a.375.375 0 0 1 .375-.375m15 15.75h-15a.375.375 0 0 1-.375-.375V8.625h15.75V19.5a.375.375 0 0 1-.375.375m-6.75-7.5a.75.75 0 1 1-1.5 0 .75.75 0 0 1 1.5 0m4.125 0a.75.75 0 1 1-1.5 0 .75.75 0 0 1 1.5 0m-8.25 3.75a.75.75 0 1 1-1.5 0 .75.75 0 0 1 1.5 0m4.125 0a.75.75 0 1 1-1.5 0 .75.75 0 0 1 1.5 0m4.125 0a.75.75 0 1 1-1.5 0 .75.75 0 0 1 1.5 0"/></svg>