<svg xmlns="http://www.w3.org/2000/svg" fill="none" aria-hidden="true" viewBox="0 0 24 24"><path fill="currentColor" d="M12 6.375a3.375 3.375 0 1 0 0 6.75 3.375 3.375 0 0 0 0-6.75m0 6a2.625 2.625 0 1 1 0-5.25 2.625 2.625 0 0 1 0 5.25m0-10.5A7.883 7.883 0 0 0 4.125 9.75c0 2.852 1.328 5.887 3.844 8.777a23.4 23.4 0 0 0 3.818 3.53.375.375 0 0 0 .43 0 23.4 23.4 0 0 0 3.814-3.53c2.514-2.89 3.844-5.925 3.844-8.777A7.883 7.883 0 0 0 12 1.875m3.478 16.147A24 24 0 0 1 12 21.282a24 24 0 0 1-3.478-3.264c-1.664-1.912-3.647-4.902-3.647-8.268a7.125 7.125 0 0 1 14.25 0c0 3.366-1.983 6.356-3.647 8.272"/></svg>