<svg xmlns="http://www.w3.org/2000/svg" fill="none" aria-hidden="true" viewBox="0 0 24 24"><path fill="currentColor" d="M12 0C8.743 0 8.334.015 7.055.072 5.775.132 4.904.333 4.14.63a5.85 5.85 0 0 0-2.125 1.385A5.85 5.85 0 0 0 .63 4.14c-.297.762-.5 1.635-.558 2.91C.015 8.332 0 8.74 0 12.002c0 3.257.015 3.665.072 4.945.06 1.278.261 2.15.558 2.913a5.9 5.9 0 0 0 1.385 2.125 5.9 5.9 0 0 0 2.123 1.385c.766.297 1.636.5 2.914.558C8.332 23.985 8.74 24 12 24s3.666-.015 4.947-.072c1.277-.06 2.151-.261 2.915-.558a5.85 5.85 0 0 0 2.124-1.385 5.9 5.9 0 0 0 1.384-2.125c.296-.764.498-1.635.558-2.913.057-1.28.072-1.687.072-4.947s-.015-3.668-.072-4.948c-.06-1.277-.262-2.15-.558-2.912a5.85 5.85 0 0 0-1.385-2.125A5.85 5.85 0 0 0 19.86.63c-.765-.297-1.638-.5-2.915-.558C15.666.015 15.259 0 11.997 0zm-1.075 2.163H12c3.205 0 3.584.01 4.849.069 1.17.052 1.805.249 2.228.412.56.218.96.479 1.38.899s.68.819.898 1.38c.164.422.36 1.058.412 2.228.058 1.264.07 1.643.07 4.846s-.012 3.584-.07 4.848c-.053 1.17-.249 1.805-.413 2.228-.193.52-.5.99-.898 1.378-.42.42-.819.68-1.38.897-.42.165-1.056.36-2.228.414-1.264.057-1.643.07-4.847.07s-3.586-.013-4.85-.07c-1.17-.054-1.804-.249-2.227-.414a3.75 3.75 0 0 1-1.38-.897 3.75 3.75 0 0 1-.9-1.38c-.164-.422-.36-1.058-.413-2.228-.057-1.264-.069-1.643-.069-4.849 0-3.205.012-3.582.069-4.846.054-1.17.249-1.806.414-2.23.218-.559.478-.96.899-1.38a3.7 3.7 0 0 1 1.38-.896c.423-.165 1.057-.36 2.227-.414 1.107-.052 1.536-.066 3.773-.068zm7.482 1.992a1.44 1.44 0 1 0 0 2.88 1.44 1.44 0 0 0 0-2.88m-6.405 1.683a6.163 6.163 0 1 0-.193 12.325 6.163 6.163 0 0 0 .193-12.325m0 2.162a4 4 0 1 1 0 8 4 4 0 0 1 0-8"/></svg>