<svg xmlns="http://www.w3.org/2000/svg" fill="none" viewBox="0 0 24 24" aria-hidden="true"><path fill="currentColor" d="M19.624 5.41A18 18 0 0 0 15.146 4a.07.07 0 0 0-.072.035c-.194.348-.408.803-.558 1.16a16.5 16.5 0 0 0-5.03 0c-.15-.365-.371-.812-.565-1.16A.07.07 0 0 0 8.849 4c-1.547.27-3.052.744-4.479 1.408a.06.06 0 0 0-.029.026C1.49 9.755.708 13.968 1.091 18.13a.08.08 0 0 0 .029.052 18.2 18.2 0 0 0 5.493 2.815.07.07 0 0 0 .077-.026q.636-.878 1.124-1.853a.07.07 0 0 0-.038-.098 12 12 0 0 1-1.716-.83.07.07 0 0 1-.029-.091.1.1 0 0 1 .022-.027 9 9 0 0 0 .34-.27.07.07 0 0 1 .072-.01c3.6 1.666 7.498 1.666 11.056 0a.07.07 0 0 1 .072.008q.166.139.342.272a.072.072 0 0 1-.006.119 11 11 0 0 1-1.717.828.07.07 0 0 0-.045.07q0 .015.007.029c.33.649.708 1.267 1.123 1.852a.07.07 0 0 0 .078.027 18.1 18.1 0 0 0 5.502-2.815.07.07 0 0 0 .028-.052c.459-4.81-.768-8.99-3.253-12.694a.06.06 0 0 0-.028-.027M8.352 15.595c-1.084 0-1.977-1.01-1.977-2.248 0-1.24.875-2.248 1.977-2.248 1.11 0 1.994 1.018 1.977 2.248 0 1.239-.876 2.248-1.977 2.248m7.31 0c-1.084 0-1.977-1.01-1.977-2.248 0-1.24.875-2.248 1.977-2.248 1.11 0 1.994 1.018 1.977 2.248 0 1.239-.867 2.248-1.977 2.248"/></svg>