<svg xmlns="http://www.w3.org/2000/svg" fill="none" aria-hidden="true" viewBox="0 0 24 24"><path fill="currentColor" d="M11.949 1a11 11 0 1 0 .102 22 11 11 0 0 0-.102-22m4.548 6.622c.092-.002.294.021.426.128a.46.46 0 0 1 .157.298c.015.086.033.28.019.433-.166 1.74-.882 5.96-1.247 7.908-.154.825-.458 1.1-.752 1.128-.638.06-1.123-.422-1.742-.827-.968-.636-1.515-1.03-2.454-1.65-1.087-.715-.383-1.11.236-1.751.162-.169 2.977-2.73 3.032-2.961.006-.03.012-.137-.052-.194s-.16-.038-.228-.022q-.146.034-4.64 3.066-.659.454-1.193.44c-.392-.007-1.147-.221-1.71-.403-.689-.225-1.236-.343-1.188-.724q.038-.297.818-.607a510 510 0 0 1 6.415-2.763c3.054-1.27 3.69-1.492 4.103-1.499"/></svg>