<svg xmlns="http://www.w3.org/2000/svg" fill="none" aria-hidden="true" viewBox="0 0 24 24"><path fill="currentColor" d="M12.979 1.018C14.173 1 15.357 1.01 16.542 1c.073 1.402.574 2.832 1.594 3.822C19.157 5.84 20.596 6.307 22 6.463v3.694c-1.312-.045-2.634-.32-3.827-.889-.52-.238-1.002-.54-1.476-.852-.01 2.676.009 5.353-.019 8.02a7.03 7.03 0 0 1-1.23 3.612c-1.194 1.76-3.262 2.906-5.385 2.943-1.303.073-2.606-.285-3.718-.945-1.84-1.09-3.135-3.089-3.326-5.234a17 17 0 0 1-.01-1.366A6.9 6.9 0 0 1 5.362 10.9c1.513-1.32 3.627-1.953 5.604-1.577.018 1.357-.037 2.714-.037 4.07-.902-.293-1.959-.21-2.751.34a3.18 3.18 0 0 0-1.24 1.603c-.191.468-.136.981-.127 1.476.218 1.504 1.658 2.769 3.19 2.631 1.02-.01 1.995-.605 2.523-1.476.173-.302.365-.614.374-.971.09-1.641.054-3.273.064-4.914.009-3.694-.01-7.379.018-11.064"/></svg>