<svg xmlns="http://www.w3.org/2000/svg" fill="none" aria-hidden="true" viewBox="0 0 24 24"><path fill="currentColor" d="M17.035 14.182c-.276-.138-1.62-.798-1.869-.89s-.432-.128-.616.138c-.184.275-.7.89-.866 1.072-.156.184-.312.202-.589.065-.276-.138-1.16-.422-2.209-1.348a8.3 8.3 0 0 1-1.51-1.888c-.165-.275-.018-.422.12-.55a8 8 0 0 0 .405-.486c.138-.156.184-.275.276-.458.092-.184.046-.33-.027-.468l-.838-2.026c-.22-.531-.45-.458-.617-.467l-.524-.01c-.184 0-.479.065-.737.34-.239.275-.948.935-.948 2.273s.976 2.64 1.114 2.824 1.933 2.933 4.676 4.106c.645.275 1.16.459 1.565.578a3.6 3.6 0 0 0 1.712.1c.525-.073 1.62-.65 1.841-1.283.24-.642.24-1.191.166-1.302-.065-.119-.249-.183-.525-.32m-4.989 6.783a9.1 9.1 0 0 1-4.649-1.256l-.33-.201-3.444.907.92-3.346-.21-.348a9 9 0 0 1-1.39-4.822 9.05 9.05 0 0 1 1.549-5.016A9.1 9.1 0 0 1 8.57 3.56a9.15 9.15 0 0 1 5.245-.519 9.13 9.13 0 0 1 4.655 2.46 9 9 0 0 1 2.67 6.417 9.06 9.06 0 0 1-2.673 6.401 9.13 9.13 0 0 1-6.431 2.655M19.778 4.2a10.9 10.9 0 0 0-3.544-2.371c-1.327-.55-2.75-.83-4.188-.828-1.92.005-3.805.511-5.467 1.47a10.94 10.94 0 0 0-4 3.989 10.88 10.88 0 0 0-.014 10.894L1 23l5.808-1.512a11 11 0 0 0 5.229 1.32h.009c6.03 0 10.945-4.886 10.954-10.9A10.8 10.8 0 0 0 19.787 4.2z"/></svg>