<svg xmlns="http://www.w3.org/2000/svg" aria-hidden="true" viewBox="0 0 24 24"><path fill="currentColor" d="M17.47 14.38c-.3-.15-1.76-.87-2.03-.97s-.47-.14-.67.15c-.2.3-.76.97-.94 1.17-.17.2-.34.22-.64.07s-1.26-.46-2.4-1.47a9 9 0 0 1-1.64-2.06c-.18-.3-.02-.46.13-.6.13-.14.3-.35.44-.53.15-.17.2-.3.3-.5s.05-.36-.03-.51l-.91-2.21c-.24-.58-.49-.5-.67-.51l-.57-.01c-.2 0-.52.07-.8.37-.26.3-1.03 1.02-1.03 2.48s1.06 2.88 1.21 3.08 2.1 3.2 5.08 4.48c.7.3 1.26.5 1.7.63.7.22 1.35.2 1.86.11.57-.08 1.76-.71 2-1.4.26-.7.26-1.3.18-1.42-.07-.13-.27-.2-.57-.35m-5.42 7.4A9.87 9.87 0 0 1 7 20.41l-.36-.22-3.74.99 1-3.65-.23-.38a9.86 9.86 0 0 1-1.51-5.26 9.9 9.9 0 0 1 16.87-6.98 9.82 9.82 0 0 1 2.9 7 9.9 9.9 0 0 1-9.89 9.88m8.41-18.3A11.8 11.8 0 0 0 12.05 0a11.91 11.91 0 0 0-10.3 17.84L.05 24l6.31-1.65a11.9 11.9 0 0 0 5.68 1.44h.01c6.55 0 11.89-5.33 11.9-11.89a11.82 11.82 0 0 0-3.49-8.41Z"/></svg>