<svg width="87" height="56" viewBox="0 0 87 56" fill="none" xmlns="http://www.w3.org/2000/svg">
<g clip-path="url(#clip0_91_1043)">
<path fill-rule="evenodd" clip-rule="evenodd" d="M28.4546 0.951721C33.6526 0.951721 37.8666 5.24319 37.8666 10.5369L37.8648 22.6015C38.6102 23.8341 39.0409 25.2856 39.0409 26.8396C39.0409 31.3078 35.4841 34.9299 31.0968 34.9299C26.7095 34.9299 23.153 31.3078 23.153 26.8396C23.153 22.3713 26.7095 18.7491 31.0968 18.7491C33.3916 18.7491 35.4584 19.7404 36.9086 21.3247L36.9083 21.3238L36.9108 10.5369C36.9108 5.78054 33.1247 1.92491 28.4546 1.92491C23.7843 1.92491 19.9982 5.78054 19.9982 10.5369V10.5835C20.716 11.2008 21.1725 12.1236 21.1725 13.1554V34.1833H19.9982V45.6833C19.9982 50.9771 15.7844 55.2685 10.5863 55.2685C5.38808 55.2685 1.17428 50.9771 1.17428 45.6833V44.6233C0.4563 44.006 0 43.0827 0 42.0511V20.5679H2.92568C4.2939 19.4311 6.04058 18.7491 7.94385 18.7491C12.3314 18.7491 15.8879 22.3713 15.8879 26.8396C15.8879 31.3078 12.3314 34.9299 7.94385 34.9299C6.2118 34.9299 4.60958 34.3648 3.30413 33.4068V45.4164C2.89058 45.4164 2.4948 45.3385 2.12985 45.1968V45.6833C2.12985 50.4395 5.91593 54.2954 10.5863 54.2954C15.2566 54.2954 19.0427 50.4395 19.0427 45.6833V34.1833H17.8682V9.79039C18.2873 9.79039 18.6876 9.87059 19.0566 10.0154C19.3226 4.96409 23.4284 0.951721 28.4546 0.951721ZM48.72 19.2037C53.0442 19.2037 56.55 22.7481 56.55 27.1205C56.55 31.4927 53.0442 35.037 48.72 35.037C44.3957 35.037 40.89 31.4927 40.89 27.1205C40.89 22.7481 44.3957 19.2037 48.72 19.2037ZM78.9896 19.2037C83.4136 19.2037 87 22.7131 87 27.0423V34.1574H83.6682V27.0423C83.6682 24.5138 81.5733 22.4642 78.9896 22.4642C76.4058 22.4642 74.3112 24.5136 74.311 27.0421V34.1574H70.979V27.0423C70.979 24.5138 68.8843 22.4642 66.3006 22.4642C63.7166 22.4642 61.622 24.5138 61.622 27.0423V34.1574H58.29V27.0423C58.29 22.7131 61.8763 19.2037 66.3006 19.2037C68.8832 19.2037 71.1802 20.4001 72.645 22.2571C74.11 20.4001 76.4067 19.2037 78.9896 19.2037ZM48.72 22.4967C46.1945 22.4967 44.1469 24.5668 44.1469 27.1205C44.1469 29.674 46.1945 31.744 48.72 31.744C51.2455 31.744 53.2931 29.674 53.2931 27.1205C53.2931 24.5668 51.2455 22.4967 48.72 22.4967ZM7.94385 22.1144C5.38155 22.1144 3.30413 24.2299 3.30413 26.8396C3.30413 29.4492 5.38155 31.5646 7.94385 31.5646C10.5064 31.5646 12.5836 29.4492 12.5836 26.8396C12.5836 24.2299 10.5064 22.1144 7.94385 22.1144ZM31.0968 22.1144C28.5345 22.1144 26.4573 24.2299 26.4573 26.8396C26.4573 29.4492 28.5345 31.5646 31.0968 31.5646C33.6593 31.5646 35.7365 29.4492 35.7365 26.8396C35.7365 24.2299 33.6593 22.1144 31.0968 22.1144Z" fill="#F5F5F5"/>
</g>
<defs>
<clipPath id="clip0_91_1043">
<rect width="87" height="56" fill="white"/>
</clipPath>
</defs>
</svg>
