<svg
  class="w-full p-[10px]"
  viewBox="0 0 17 17"
  fill="none"
  xmlns="http://www.w3.org/2000/svg"
>
  <path
    d="M15.6768 16.3845L9.41525 10.123C8.91525 10.5487 8.34025 10.8782 7.69025 11.1115C7.04025 11.3448 6.38708 11.4615 5.73075 11.4615C4.12908 11.4615 2.7735 10.9071 1.664 9.79825C0.554667 8.68942 0 7.33467 0 5.734C0 4.13317 0.554417 2.77725 1.66325 1.66625C2.77208 0.555416 4.12683 0 5.7275 0C7.32833 0 8.68425 0.554667 9.79525 1.664C10.9061 2.7735 11.4615 4.12908 11.4615 5.73075C11.4615 6.42558 11.3384 7.098 11.0922 7.748C10.8461 8.398 10.523 8.95375 10.123 9.41525L16.3845 15.677L15.6768 16.3845ZM5.73075 10.4615C7.05758 10.4615 8.17775 10.0048 9.09125 9.09125C10.0048 8.17792 10.4615 7.05775 10.4615 5.73075C10.4615 4.40375 10.0048 3.28358 9.09125 2.37025C8.17775 1.45675 7.05758 1 5.73075 1C4.40375 1 3.28358 1.45675 2.37025 2.37025C1.45675 3.28358 1 4.40375 1 5.73075C1 7.05775 1.45675 8.17792 2.37025 9.09125C3.28358 10.0048 4.40375 10.4615 5.73075 10.4615Z"
    fill="currentColor"
  />
</svg>
